<svg width="128" height="59" viewBox="0 0 128 59" fill="none" xmlns="http://www.w3.org/2000/svg">
<g filter="url(#filter0_d)">
<path d="M20.664 27.488H19.368C13.512 27.488 10.584 28.768 10.584 31.328C10.584 32.352 10.968 33.088 11.736 33.536C12.536 33.984 13.496 34.208 14.616 34.208C16.568 34.208 18.056 33.696 19.08 32.672C20.136 31.616 20.664 30.16 20.664 28.304V27.488ZM26.136 35.408C26.136 36.528 25.848 37.312 25.272 37.76C24.696 38.208 24.088 38.432 23.448 38.432C23.064 38.432 22.696 38.368 22.344 38.24C21.992 38.112 21.64 37.808 21.288 37.328C20.936 36.848 20.76 36.208 20.76 35.408V35.072H20.616C20.04 36.096 19.096 36.944 17.784 37.616C16.504 38.256 15.064 38.576 13.464 38.576C11.256 38.576 9.256 38 7.464 36.848C5.704 35.664 4.824 33.856 4.824 31.424C4.824 30.112 5.144 28.976 5.784 28.016C6.456 27.024 7.288 26.256 8.28 25.712C9.272 25.168 10.504 24.736 11.976 24.416C13.48 24.064 14.888 23.84 16.2 23.744C17.544 23.648 19.032 23.6 20.664 23.6V23.024C20.664 21.68 20.168 20.64 19.176 19.904C18.184 19.168 16.92 18.8 15.384 18.8C13.912 18.8 12.248 19.376 10.392 20.528C9.848 20.848 9.336 21.008 8.856 21.008C8.248 21.008 7.736 20.8 7.32 20.384C6.904 19.936 6.696 19.408 6.696 18.8C6.696 17.936 7.144 17.2 8.04 16.592C10.28 15.056 12.888 14.288 15.864 14.288C17.848 14.288 19.528 14.576 20.904 15.152C22.312 15.696 23.384 16.464 24.12 17.456C24.856 18.416 25.368 19.44 25.656 20.528C25.976 21.584 26.136 22.736 26.136 23.984V35.408ZM53.2946 33.344C53.9666 34.048 54.3026 34.784 54.3026 35.552C54.3026 36.352 54.0306 37.04 53.4866 37.616C52.9426 38.16 52.2706 38.432 51.4706 38.432C50.5426 38.432 49.6306 37.936 48.7346 36.944L38.8466 26.192H38.7026V35.216C38.7026 36.432 38.3986 37.28 37.7906 37.76C37.1826 38.208 36.5266 38.432 35.8226 38.432C35.5346 38.432 35.2466 38.384 34.9586 38.288C34.6706 38.224 34.3666 38.096 34.0466 37.904C33.7266 37.68 33.4546 37.344 33.2306 36.896C33.0386 36.416 32.9426 35.856 32.9426 35.216V4.496C32.9426 3.312 33.2466 2.48 33.8546 2C34.4946 1.52 35.1506 1.28 35.8226 1.28C36.5266 1.28 37.1826 1.52 37.7906 2C38.3986 2.448 38.7026 3.28 38.7026 4.496V24.656H38.8466L48.2066 15.488C48.9746 14.72 49.7746 14.336 50.6066 14.336C51.3746 14.336 52.0146 14.592 52.5266 15.104C53.0386 15.616 53.2946 16.24 53.2946 16.976C53.2946 17.808 52.8946 18.592 52.0946 19.328L45.3266 25.328L53.2946 33.344ZM64.4771 4.688C65.2131 5.328 65.5811 6.144 65.5811 7.136C65.5811 8.128 65.2131 8.96 64.4771 9.632C63.7731 10.272 62.8931 10.592 61.8371 10.592C60.8131 10.592 59.9491 10.256 59.2451 9.584C58.5411 8.88 58.1891 8.064 58.1891 7.136C58.1891 6.208 58.5411 5.408 59.2451 4.736C59.9491 4.032 60.8131 3.68 61.8371 3.68C62.8931 3.68 63.7731 4.016 64.4771 4.688ZM64.7651 35.216C64.7651 36.432 64.4611 37.28 63.8531 37.76C63.2451 38.208 62.5891 38.432 61.8851 38.432C61.1811 38.432 60.5251 38.208 59.9171 37.76C59.3091 37.28 59.0051 36.432 59.0051 35.216V17.744C59.0051 16.528 59.3091 15.696 59.9171 15.248C60.5251 14.768 61.1811 14.528 61.8851 14.528C62.5891 14.528 63.2451 14.768 63.8531 15.248C64.4611 15.696 64.7651 16.528 64.7651 17.744V35.216ZM71.7529 35.216V17.552C71.7529 16.432 72.0409 15.648 72.6169 15.2C73.2249 14.752 73.8489 14.528 74.4889 14.528C74.8729 14.528 75.2409 14.592 75.5929 14.72C75.9769 14.848 76.3449 15.152 76.6969 15.632C77.0489 16.112 77.2249 16.752 77.2249 17.552V18.656H77.3209C77.8649 17.44 78.7769 16.416 80.0569 15.584C81.3689 14.72 82.8409 14.288 84.4729 14.288C87.2889 14.288 89.4009 15.2 90.8089 17.024C92.2489 18.816 92.9689 21.008 92.9689 23.6V35.216C92.9689 36.432 92.6649 37.28 92.0569 37.76C91.4489 38.208 90.7929 38.432 90.0889 38.432C89.3849 38.432 88.7289 38.208 88.1209 37.76C87.5129 37.28 87.2089 36.432 87.2089 35.216V25.232C87.2089 21.136 85.7689 19.088 82.8889 19.088C81.1609 19.088 79.8329 19.712 78.9049 20.96C77.9769 22.176 77.5129 23.632 77.5129 25.328V35.216C77.5129 36.432 77.2089 37.28 76.6009 37.76C75.9929 38.208 75.3369 38.432 74.6329 38.432C73.9289 38.432 73.2729 38.208 72.6649 37.76C72.0569 37.28 71.7529 36.432 71.7529 35.216ZM100.602 46.64C99.6104 45.904 99.1144 45.088 99.1144 44.192C99.1144 43.456 99.3544 42.832 99.8344 42.32C100.314 41.808 100.938 41.552 101.706 41.552C102.346 41.552 103.034 41.808 103.77 42.32C105.85 43.792 107.946 44.528 110.058 44.528C114.922 44.528 117.354 41.888 117.354 36.608V34.928H117.258C115.53 37.232 113.018 38.384 109.722 38.384C106.362 38.384 103.626 37.232 101.514 34.928C99.4024 32.592 98.3464 29.744 98.3464 26.384C98.3464 22.96 99.3704 20.096 101.418 17.792C103.498 15.456 106.234 14.288 109.626 14.288C113.242 14.288 115.882 15.664 117.546 18.416H117.642V17.552C117.642 16.432 117.93 15.648 118.506 15.2C119.114 14.752 119.738 14.528 120.378 14.528C120.762 14.528 121.13 14.592 121.482 14.72C121.866 14.848 122.234 15.152 122.586 15.632C122.938 16.112 123.114 16.752 123.114 17.552V35.936C123.114 40.224 122.026 43.552 119.85 45.92C117.706 48.32 114.458 49.52 110.106 49.52C106.394 49.52 103.226 48.56 100.602 46.64ZM104.202 26.336C104.202 28.288 104.794 30 105.978 31.472C107.194 32.912 108.794 33.632 110.778 33.632C112.826 33.632 114.474 32.928 115.722 31.52C117.002 30.08 117.642 28.352 117.642 26.336C117.642 24.288 117.018 22.56 115.77 21.152C114.522 19.712 112.874 18.992 110.826 18.992C108.81 18.992 107.194 19.696 105.978 21.104C104.794 22.48 104.202 24.224 104.202 26.336Z" fill="#010101"/>
<path d="M20.664 27.488H21.164V26.988H20.664V27.488ZM11.736 33.536L11.484 33.968L11.4917 33.9723L11.736 33.536ZM19.08 32.672L18.7264 32.3184L19.08 32.672ZM22.344 38.24L22.1731 38.7099L22.344 38.24ZM21.288 37.328L20.8848 37.6237L21.288 37.328ZM20.76 35.072H21.26V34.572H20.76V35.072ZM20.616 35.072V34.572H20.3236L20.1802 34.8269L20.616 35.072ZM17.784 37.616L18.0076 38.0632L18.0119 38.061L17.784 37.616ZM7.464 36.848L7.18485 37.263L7.19362 37.2686L7.464 36.848ZM5.784 28.016L5.37003 27.7356L5.36797 27.7387L5.784 28.016ZM8.28 25.712L8.03958 25.2736L8.28 25.712ZM11.976 24.416L12.0822 24.9046L12.0899 24.9028L11.976 24.416ZM16.2 23.744L16.1644 23.2453L16.1635 23.2453L16.2 23.744ZM20.664 23.6V24.1H21.164V23.6H20.664ZM19.176 19.904L18.8781 20.3055L19.176 19.904ZM10.392 20.528L10.6456 20.9591L10.6557 20.9528L10.392 20.528ZM7.32 20.384L6.9536 20.7242L6.9599 20.731L6.96645 20.7376L7.32 20.384ZM8.04 16.592L8.32075 17.0057L8.32276 17.0044L8.04 16.592ZM20.904 15.152L20.7109 15.6134L20.7238 15.6184L20.904 15.152ZM24.12 17.456L23.7184 17.754L23.7232 17.7602L24.12 17.456ZM25.656 20.528L25.1726 20.6559L25.1749 20.6645L25.1775 20.673L25.656 20.528ZM20.664 26.988H19.368V27.988H20.664V26.988ZM19.368 26.988C16.419 26.988 14.1395 27.308 12.5797 27.9899C11.7942 28.3333 11.1669 28.7789 10.7354 29.3448C10.2988 29.9174 10.084 30.5855 10.084 31.328H11.084C11.084 30.7905 11.2352 30.3386 11.5306 29.9512C11.8311 29.5571 12.3018 29.2027 12.9803 28.9061C14.3485 28.308 16.461 27.988 19.368 27.988V26.988ZM10.084 31.328C10.084 32.4976 10.5365 33.4152 11.4841 33.9679L11.9879 33.1041C11.3995 32.7608 11.084 32.2064 11.084 31.328H10.084ZM11.4917 33.9723C12.3812 34.4704 13.4293 34.708 14.616 34.708V33.708C13.5627 33.708 12.6908 33.4976 11.9803 33.0997L11.4917 33.9723ZM14.616 34.708C16.6531 34.708 18.2868 34.1723 19.4336 33.0256L18.7264 32.3184C17.8252 33.2197 16.4829 33.708 14.616 33.708V34.708ZM19.4336 33.0256C20.6049 31.8542 21.164 30.2585 21.164 28.304H20.164C20.164 30.0615 19.6671 31.3778 18.7264 32.3184L19.4336 33.0256ZM21.164 28.304V27.488H20.164V28.304H21.164ZM25.636 35.408C25.636 36.4579 25.3654 37.0539 24.965 37.3653L25.579 38.1547C26.3306 37.5701 26.636 36.5981 26.636 35.408H25.636ZM24.965 37.3653C24.4639 37.7551 23.9615 37.932 23.448 37.932V38.932C24.2145 38.932 24.9281 38.6609 25.579 38.1547L24.965 37.3653ZM23.448 37.932C23.1208 37.932 22.8107 37.8777 22.5149 37.7701L22.1731 38.7099C22.5813 38.8583 23.0072 38.932 23.448 38.932V37.932ZM22.5149 37.7701C22.2958 37.6904 22.0163 37.4756 21.6912 37.0323L20.8848 37.6237C21.2637 38.1404 21.6882 38.5336 22.1731 38.7099L22.5149 37.7701ZM21.6912 37.0323C21.4205 36.6632 21.26 36.1378 21.26 35.408H20.26C20.26 36.2782 20.4515 37.0328 20.8848 37.6237L21.6912 37.0323ZM21.26 35.408V35.072H20.26V35.408H21.26ZM20.76 34.572H20.616V35.572H20.76V34.572ZM20.1802 34.8269C19.6633 35.7458 18.8029 36.5323 17.5561 37.171L18.0119 38.061C19.3891 37.3557 20.4167 36.4462 21.0518 35.3171L20.1802 34.8269ZM17.5604 37.1688C16.3577 37.7702 14.9956 38.076 13.464 38.076V39.076C15.1324 39.076 16.6503 38.7418 18.0076 38.0632L17.5604 37.1688ZM13.464 38.076C11.3482 38.076 9.44269 37.5256 7.73438 36.4274L7.19362 37.2686C9.06931 38.4744 11.1638 39.076 13.464 39.076V38.076ZM7.74309 36.4331C6.14317 35.3568 5.324 33.7179 5.324 31.424H4.324C4.324 33.9941 5.26483 35.9712 7.18491 37.2629L7.74309 36.4331ZM5.324 31.424C5.324 30.1967 5.62205 29.1603 6.20003 28.2934L5.36797 27.7387C4.66595 28.7917 4.324 30.0273 4.324 31.424H5.324ZM6.19796 28.2964C6.82817 27.3661 7.60208 26.654 8.52042 26.1504L8.03958 25.2736C6.97392 25.858 6.08383 26.6819 5.37004 27.7356L6.19796 28.2964ZM8.52042 26.1504C9.45903 25.6357 10.6426 25.2175 12.0822 24.9046L11.8698 23.9274C10.3654 24.2545 9.08497 24.7003 8.03958 25.2736L8.52042 26.1504ZM12.0899 24.9028C13.5727 24.5558 14.9546 24.3365 16.2365 24.2427L16.1635 23.2453C14.8214 23.3435 13.3873 23.5722 11.8621 23.9292L12.0899 24.9028ZM16.2356 24.2427C17.5656 24.1477 19.0415 24.1 20.664 24.1V23.1C19.0225 23.1 17.5224 23.1483 16.1644 23.2453L16.2356 24.2427ZM21.164 23.6V23.024H20.164V23.6H21.164ZM21.164 23.024C21.164 21.5379 20.6055 20.342 19.4739 19.5025L18.8781 20.3055C19.7305 20.938 20.164 21.8221 20.164 23.024H21.164ZM19.4739 19.5025C18.3766 18.6883 17.0008 18.3 15.384 18.3V19.3C16.8392 19.3 17.9914 19.6477 18.8781 20.3055L19.4739 19.5025ZM15.384 18.3C13.7841 18.3 12.0276 18.9243 10.1283 20.1032L10.6557 20.9528C12.4684 19.8277 14.0399 19.3 15.384 19.3V18.3ZM10.1385 20.097C9.64779 20.3857 9.22302 20.508 8.856 20.508V21.508C9.44898 21.508 10.0482 21.3103 10.6455 20.959L10.1385 20.097ZM8.856 20.508C8.37565 20.508 7.99234 20.3492 7.67355 20.0304L6.96645 20.7376C7.47966 21.2508 8.12035 21.508 8.856 21.508V20.508ZM7.6864 20.0438C7.35575 19.6877 7.196 19.281 7.196 18.8H6.196C6.196 19.535 6.45225 20.1843 6.9536 20.7242L7.6864 20.0438ZM7.196 18.8C7.196 18.1441 7.52268 17.5473 8.32075 17.0057L7.75925 16.1783C6.76532 16.8527 6.196 17.7279 6.196 18.8H7.196ZM8.32276 17.0044C10.4716 15.5309 12.9788 14.788 15.864 14.788V13.788C12.7972 13.788 10.0884 14.5811 7.75724 16.1796L8.32276 17.0044ZM15.864 14.788C17.8024 14.788 19.4127 15.0698 20.7109 15.6132L21.0971 14.6908C19.6433 14.0822 17.8936 13.788 15.864 13.788V14.788ZM20.7238 15.6184C22.0632 16.1359 23.0502 16.8532 23.7185 17.7539L24.5216 17.1581C23.7178 16.0748 22.5608 15.2561 21.0842 14.6856L20.7238 15.6184ZM23.7232 17.7602C24.422 18.6717 24.9028 19.6365 25.1726 20.6559L26.1394 20.4001C25.8332 19.2435 25.29 18.1603 24.5168 17.1518L23.7232 17.7602ZM25.1775 20.673C25.4815 21.6763 25.636 22.7788 25.636 23.984H26.636C26.636 22.6932 26.4705 21.4917 26.1345 20.383L25.1775 20.673ZM25.636 23.984V35.408H26.636V23.984H25.636ZM53.2946 33.344L53.6564 32.9987L53.6492 32.9915L53.2946 33.344ZM53.4866 37.616L53.8402 37.9696L53.8452 37.9645L53.8501 37.9593L53.4866 37.616ZM48.7346 36.944L49.1057 36.6088L49.1027 36.6055L48.7346 36.944ZM38.8466 26.192L39.2147 25.8535L39.0661 25.692H38.8466V26.192ZM38.7026 26.192V25.692H38.2026V26.192H38.7026ZM37.7906 37.76L38.0872 38.1625L38.0939 38.1576L38.1004 38.1524L37.7906 37.76ZM34.9586 38.288L35.1167 37.8137L35.0923 37.8055L35.0671 37.7999L34.9586 38.288ZM34.0466 37.904L33.7599 38.3136L33.7743 38.3237L33.7894 38.3327L34.0466 37.904ZM33.2306 36.896L32.7664 37.0817L32.7741 37.101L32.7834 37.1196L33.2306 36.896ZM33.8546 2L33.5545 1.59987L33.5448 1.60756L33.8546 2ZM37.7906 2L37.4808 2.39244L37.4873 2.39759L37.494 2.40252L37.7906 2ZM38.7026 24.656H38.2026V25.156H38.7026V24.656ZM38.8466 24.656V25.156H39.0507L39.1965 25.0132L38.8466 24.656ZM48.2066 15.488L48.5565 15.8452L48.5602 15.8416L48.2066 15.488ZM52.0946 19.328L52.4264 19.7022L52.4332 19.696L52.0946 19.328ZM45.3266 25.328L44.9949 24.9539L44.5988 25.305L44.972 25.6805L45.3266 25.328ZM52.9329 33.6892C53.5409 34.3262 53.8026 34.9445 53.8026 35.552H54.8026C54.8026 34.6235 54.3923 33.7698 53.6563 32.9988L52.9329 33.6892ZM53.8026 35.552C53.8026 36.2257 53.5785 36.7905 53.1231 37.2727L53.8501 37.9593C54.4827 37.2895 54.8026 36.4783 54.8026 35.552H53.8026ZM53.1331 37.2624C52.6869 37.7086 52.1439 37.932 51.4706 37.932V38.932C52.3973 38.932 53.1983 38.6114 53.8402 37.9696L53.1331 37.2624ZM51.4706 37.932C50.7371 37.932 49.9495 37.5431 49.1057 36.6089L48.3636 37.2791C49.3118 38.3289 50.3481 38.932 51.4706 38.932V37.932ZM49.1027 36.6055L39.2147 25.8535L38.4786 26.5305L48.3666 37.2825L49.1027 36.6055ZM38.8466 25.692H38.7026V26.692H38.8466V25.692ZM38.2026 26.192V35.216H39.2026V26.192H38.2026ZM38.2026 35.216C38.2026 36.3669 37.9134 37.026 37.4808 37.3676L38.1004 38.1524C38.8838 37.534 39.2026 36.4971 39.2026 35.216H38.2026ZM37.494 37.3575C36.9653 37.747 36.4119 37.932 35.8226 37.932V38.932C36.6413 38.932 37.3999 38.669 38.0872 38.1625L37.494 37.3575ZM35.8226 37.932C35.5912 37.932 35.3565 37.8936 35.1167 37.8137L34.8005 38.7623C35.1367 38.8744 35.478 38.932 35.8226 38.932V37.932ZM35.0671 37.7999C34.8433 37.7502 34.5894 37.6466 34.3039 37.4753L33.7894 38.3327C34.1438 38.5454 34.4979 38.6978 34.8502 38.7761L35.0671 37.7999ZM34.3334 37.4944C34.098 37.3297 33.8749 37.0665 33.6778 36.6724L32.7834 37.1196C33.0344 37.6215 33.3552 38.0303 33.7599 38.3136L34.3334 37.4944ZM33.6949 36.7103C33.5314 36.3016 33.4426 35.807 33.4426 35.216H32.4426C32.4426 35.905 32.5459 36.5304 32.7664 37.0817L33.6949 36.7103ZM33.4426 35.216V4.496H32.4426V35.216H33.4426ZM33.4426 4.496C33.4426 3.38259 33.729 2.73618 34.1644 2.39244L33.5448 1.60756C32.7642 2.22381 32.4426 3.24141 32.4426 4.496H33.4426ZM34.1546 2.4C34.7251 1.97216 35.2783 1.78 35.8226 1.78V0.779998C35.023 0.779998 34.2642 1.06783 33.5546 1.6L34.1546 2.4ZM35.8226 1.78C36.4028 1.78 36.9516 1.97468 37.4808 2.39244L38.1004 1.60756C37.4136 1.06531 36.6505 0.779998 35.8226 0.779998V1.78ZM37.494 2.40252C37.9118 2.71036 38.2026 3.34105 38.2026 4.496H39.2026C39.2026 3.21895 38.8854 2.18563 38.0872 1.59747L37.494 2.40252ZM38.2026 4.496V24.656H39.2026V4.496H38.2026ZM38.7026 25.156H38.8466V24.156H38.7026V25.156ZM39.1965 25.0132L48.5565 15.8452L47.8568 15.1308L38.4968 24.2988L39.1965 25.0132ZM48.5602 15.8416C49.2642 15.1375 49.9442 14.836 50.6066 14.836V13.836C49.6051 13.836 48.685 14.3025 47.8531 15.1344L48.5602 15.8416ZM50.6066 14.836C51.2509 14.836 51.761 15.0455 52.1731 15.4576L52.8802 14.7504C52.2683 14.1385 51.4983 13.836 50.6066 13.836V14.836ZM52.1731 15.4576C52.5896 15.8741 52.7946 16.3702 52.7946 16.976H53.7946C53.7946 16.1098 53.4877 15.3579 52.8802 14.7504L52.1731 15.4576ZM52.7946 16.976C52.7946 17.6286 52.4865 18.2881 51.7561 18.96L52.4332 19.696C53.3028 18.8959 53.7946 17.9874 53.7946 16.976H52.7946ZM51.7629 18.9539L44.9949 24.9539L45.6583 25.7021L52.4263 19.7021L51.7629 18.9539ZM44.972 25.6805L52.94 33.6965L53.6492 32.9915L45.6812 24.9755L44.972 25.6805ZM64.4771 4.688L64.1319 5.04968L64.1403 5.05769L64.149 5.0653L64.4771 4.688ZM64.4771 9.632L64.8135 10.002L64.8143 10.0012L64.4771 9.632ZM59.2451 9.584L58.8915 9.93765L58.8999 9.94568L59.2451 9.584ZM59.2451 4.736L59.5905 5.09777L59.5987 5.08955L59.2451 4.736ZM63.8531 37.76L64.1497 38.1625L64.1564 38.1576L64.1629 38.1524L63.8531 37.76ZM59.9171 37.76L59.6073 38.1524L59.6138 38.1576L59.6205 38.1625L59.9171 37.76ZM59.9171 15.248L60.2137 15.6505L60.2204 15.6456L60.2269 15.6404L59.9171 15.248ZM63.8531 15.248L63.5433 15.6404L63.5498 15.6456L63.5565 15.6505L63.8531 15.248ZM64.149 5.0653C64.7737 5.60849 65.0811 6.28588 65.0811 7.136H66.0811C66.0811 6.00212 65.6525 5.0475 64.8052 4.3107L64.149 5.0653ZM65.0811 7.136C65.0811 7.98675 64.7728 8.68498 64.14 9.26276L64.8143 10.0012C65.6535 9.23501 66.0811 8.26924 66.0811 7.136H65.0811ZM64.1408 9.26203C63.5392 9.80893 62.7835 10.092 61.8371 10.092V11.092C63.0027 11.092 64.0071 10.7351 64.8135 10.002L64.1408 9.26203ZM61.8371 10.092C60.9343 10.092 60.1961 9.80055 59.5904 9.22232L58.8999 9.94568C59.7021 10.7114 60.6919 11.092 61.8371 11.092V10.092ZM59.5987 9.23045C58.9809 8.61266 58.6891 7.92107 58.6891 7.136H57.6891C57.6891 8.20693 58.1014 9.14734 58.8916 9.93755L59.5987 9.23045ZM58.6891 7.136C58.6891 6.35194 58.9798 5.68049 59.5904 5.09768L58.8999 4.37432C58.1025 5.13551 57.6891 6.06406 57.6891 7.136H58.6891ZM59.5987 5.08955C60.206 4.48227 60.9415 4.18 61.8371 4.18V3.18C60.6847 3.18 59.6923 3.58173 58.8916 4.38245L59.5987 5.08955ZM61.8371 4.18C62.7765 4.18 63.5292 4.4744 64.1319 5.04968L64.8224 4.32632C64.017 3.5576 63.0097 3.18 61.8371 3.18V4.18ZM64.2651 35.216C64.2651 36.3669 63.9759 37.026 63.5433 37.3676L64.1629 38.1524C64.9463 37.534 65.2651 36.4971 65.2651 35.216H64.2651ZM63.5565 37.3575C63.0278 37.747 62.4744 37.932 61.8851 37.932V38.932C62.7038 38.932 63.4624 38.669 64.1497 38.1625L63.5565 37.3575ZM61.8851 37.932C61.2958 37.932 60.7424 37.747 60.2137 37.3575L59.6205 38.1625C60.3078 38.669 61.0664 38.932 61.8851 38.932V37.932ZM60.2269 37.3676C59.7943 37.026 59.5051 36.3669 59.5051 35.216H58.5051C58.5051 36.4971 58.8239 37.534 59.6073 38.1524L60.2269 37.3676ZM59.5051 35.216V17.744H58.5051V35.216H59.5051ZM59.5051 17.744C59.5051 16.589 59.7959 15.9584 60.2137 15.6505L59.6205 14.8455C58.8223 15.4336 58.5051 16.4669 58.5051 17.744H59.5051ZM60.2269 15.6404C60.7561 15.2227 61.305 15.028 61.8851 15.028V14.028C61.0573 14.028 60.2941 14.3133 59.6073 14.8556L60.2269 15.6404ZM61.8851 15.028C62.4653 15.028 63.0141 15.2227 63.5433 15.6404L64.1629 14.8556C63.4761 14.3133 62.713 14.028 61.8851 14.028V15.028ZM63.5565 15.6505C63.9743 15.9584 64.2651 16.589 64.2651 17.744H65.2651C65.2651 16.4669 64.9479 15.4336 64.1497 14.8455L63.5565 15.6505ZM64.2651 17.744V35.216H65.2651V17.744H64.2651ZM72.6169 15.2L72.3202 14.7973L72.3099 14.8053L72.6169 15.2ZM75.5929 14.72L75.4219 15.1901L75.4348 15.1943L75.5929 14.72ZM76.6969 15.632L76.2937 15.9277L76.6969 15.632ZM77.2249 18.656H76.7249V19.156H77.2249V18.656ZM77.3209 18.656V19.156H77.6449L77.7773 18.8602L77.3209 18.656ZM80.0569 15.584L80.3294 16.0032L80.3319 16.0016L80.0569 15.584ZM90.8089 17.024L90.413 17.3296L90.4191 17.3372L90.8089 17.024ZM92.0569 37.76L92.3535 38.1625L92.3602 38.1576L92.3667 38.1524L92.0569 37.76ZM88.1209 37.76L87.8111 38.1524L87.8176 38.1576L87.8243 38.1625L88.1209 37.76ZM78.9049 20.96L79.3024 21.2634L79.3061 21.2584L78.9049 20.96ZM76.6009 37.76L76.8975 38.1625L76.9042 38.1576L76.9107 38.1524L76.6009 37.76ZM72.6649 37.76L72.3551 38.1524L72.3616 38.1576L72.3683 38.1625L72.6649 37.76ZM72.2529 35.216V17.552H71.2529V35.216H72.2529ZM72.2529 17.552C72.2529 16.5021 72.5234 15.9061 72.9238 15.5947L72.3099 14.8053C71.5583 15.3899 71.2529 16.3619 71.2529 17.552H72.2529ZM72.9135 15.6025C73.4515 15.2061 73.9739 15.028 74.4889 15.028V14.028C73.7239 14.028 72.9982 14.2979 72.3203 14.7975L72.9135 15.6025ZM74.4889 15.028C74.8161 15.028 75.1262 15.0823 75.422 15.1899L75.7637 14.2501C75.3556 14.1017 74.9297 14.028 74.4889 14.028V15.028ZM75.4348 15.1943C75.6842 15.2775 75.9755 15.4938 76.2937 15.9277L77.1001 15.3363C76.7143 14.8102 76.2696 14.4185 75.751 14.2457L75.4348 15.1943ZM76.2937 15.9277C76.5643 16.2968 76.7249 16.8222 76.7249 17.552H77.7249C77.7249 16.6818 77.5334 15.9272 77.1001 15.3363L76.2937 15.9277ZM76.7249 17.552V18.656H77.7249V17.552H76.7249ZM77.2249 19.156H77.3209V18.156H77.2249V19.156ZM77.7773 18.8602C78.2765 17.7444 79.118 16.7906 80.3294 16.0032L79.7844 15.1648C78.4357 16.0414 77.4533 17.1356 76.8645 18.4518L77.7773 18.8602ZM80.3319 16.0016C81.5589 15.1935 82.9346 14.788 84.4729 14.788V13.788C82.7471 13.788 81.1788 14.2465 79.7819 15.1664L80.3319 16.0016ZM84.4729 14.788C87.1722 14.788 89.1209 15.6556 90.4131 17.3295L91.2047 16.7185C89.6808 14.7444 87.4056 13.788 84.4729 13.788V14.788ZM90.4191 17.3372C91.7787 19.0291 92.4689 21.1066 92.4689 23.6H93.4689C93.4689 20.9094 92.719 18.6029 91.1986 16.7108L90.4191 17.3372ZM92.4689 23.6V35.216H93.4689V23.6H92.4689ZM92.4689 35.216C92.4689 36.3669 92.1797 37.026 91.7471 37.3676L92.3667 38.1524C93.1501 37.534 93.4689 36.4971 93.4689 35.216H92.4689ZM91.7603 37.3575C91.2316 37.747 90.6782 37.932 90.0889 37.932V38.932C90.9076 38.932 91.6662 38.669 92.3535 38.1625L91.7603 37.3575ZM90.0889 37.932C89.4996 37.932 88.9462 37.747 88.4175 37.3575L87.8243 38.1625C88.5116 38.669 89.2702 38.932 90.0889 38.932V37.932ZM88.4307 37.3676C87.9981 37.026 87.7089 36.3669 87.7089 35.216H86.7089C86.7089 36.4971 87.0277 37.534 87.8111 38.1524L88.4307 37.3676ZM87.7089 35.216V25.232H86.7089V35.216H87.7089ZM87.7089 25.232C87.7089 23.1407 87.344 21.4829 86.5379 20.3364C85.7091 19.1577 84.4634 18.588 82.8889 18.588V19.588C84.1943 19.588 85.1086 20.0423 85.7199 20.9116C86.3537 21.8131 86.7089 23.2273 86.7089 25.232H87.7089ZM82.8889 18.588C81.023 18.588 79.5374 19.2714 78.5036 20.6616L79.3061 21.2584C80.1283 20.1526 81.2987 19.588 82.8889 19.588V18.588ZM78.5074 20.6567C77.5057 21.9693 77.0129 23.535 77.0129 25.328H78.0129C78.0129 23.729 78.4481 22.3827 79.3024 21.2633L78.5074 20.6567ZM77.0129 25.328V35.216H78.0129V25.328H77.0129ZM77.0129 35.216C77.0129 36.3669 76.7237 37.026 76.2911 37.3676L76.9107 38.1524C77.6941 37.534 78.0129 36.4971 78.0129 35.216H77.0129ZM76.3043 37.3575C75.7756 37.747 75.2222 37.932 74.6329 37.932V38.932C75.4516 38.932 76.2102 38.669 76.8975 38.1625L76.3043 37.3575ZM74.6329 37.932C74.0436 37.932 73.4902 37.747 72.9615 37.3575L72.3683 38.1625C73.0556 38.669 73.8142 38.932 74.6329 38.932V37.932ZM72.9747 37.3676C72.5421 37.026 72.2529 36.3669 72.2529 35.216H71.2529C71.2529 36.4971 71.5717 37.534 72.3551 38.1524L72.9747 37.3676ZM100.602 46.64L100.304 47.0416L100.307 47.0435L100.602 46.64ZM103.77 42.32L104.059 41.9118L104.056 41.9095L103.77 42.32ZM117.354 34.928H117.854V34.428H117.354V34.928ZM117.258 34.928V34.428H117.008L116.858 34.628L117.258 34.928ZM101.514 34.928L101.143 35.2633L101.146 35.2659L101.514 34.928ZM101.418 17.792L101.045 17.4595L101.045 17.4598L101.418 17.792ZM117.546 18.416L117.119 18.6747L117.264 18.916H117.546V18.416ZM117.642 18.416V18.916H118.142V18.416H117.642ZM118.506 15.2L118.21 14.7973L118.199 14.8053L118.506 15.2ZM121.482 14.72L121.311 15.1901L121.324 15.1943L121.482 14.72ZM122.586 15.632L122.183 15.9277L122.586 15.632ZM119.85 45.92L119.482 45.5817L119.477 45.5869L119.85 45.92ZM105.978 31.472L105.589 31.7855L105.596 31.7946L105.978 31.472ZM115.722 31.52L115.349 31.1878L115.348 31.1883L115.722 31.52ZM115.77 21.152L115.393 21.4795L115.396 21.4837L115.77 21.152ZM105.978 21.104L105.6 20.7772L105.599 20.7779L105.978 21.104ZM100.9 46.2385C99.9838 45.5584 99.6144 44.8749 99.6144 44.192H98.6144C98.6144 45.3011 99.237 46.2496 100.304 47.0415L100.9 46.2385ZM99.6144 44.192C99.6144 43.5762 99.8106 43.0764 100.199 42.662L99.4696 41.978C98.8982 42.5876 98.6144 43.3358 98.6144 44.192H99.6144ZM100.199 42.662C100.575 42.2609 101.062 42.052 101.706 42.052V41.052C100.815 41.052 100.054 41.3551 99.4696 41.978L100.199 42.662ZM101.706 42.052C102.211 42.052 102.8 42.2541 103.485 42.7305L104.056 41.9095C103.269 41.3619 102.482 41.052 101.706 41.052V42.052ZM103.482 42.7281C105.628 44.2473 107.823 45.028 110.058 45.028V44.028C108.07 44.028 106.073 43.3367 104.059 41.9119L103.482 42.7281ZM110.058 45.028C112.578 45.028 114.557 44.3422 115.898 42.8868C117.232 41.4391 117.854 39.3154 117.854 36.608H116.854C116.854 39.1806 116.261 41.0169 115.163 42.2092C114.071 43.3938 112.402 44.028 110.058 44.028V45.028ZM117.854 36.608V34.928H116.854V36.608H117.854ZM117.354 34.428H117.258V35.428H117.354V34.428ZM116.858 34.628C115.239 36.7867 112.887 37.884 109.722 37.884V38.884C113.15 38.884 115.821 37.6773 117.658 35.228L116.858 34.628ZM109.722 37.884C106.491 37.884 103.893 36.7824 101.883 34.5901L101.146 35.2659C103.36 37.6816 106.234 38.884 109.722 38.884V37.884ZM101.885 34.5927C99.8622 32.3551 98.8464 29.6291 98.8464 26.384H97.8464C97.8464 29.8589 98.9425 32.8289 101.143 35.2633L101.885 34.5927ZM98.8464 26.384C98.8464 23.0679 99.8346 20.3263 101.792 18.1242L101.045 17.4598C98.9061 19.8657 97.8464 22.8521 97.8464 26.384H98.8464ZM101.792 18.1245C103.768 15.9048 106.364 14.788 109.626 14.788V13.788C106.105 13.788 103.228 15.0072 101.045 17.4595L101.792 18.1245ZM109.626 14.788C113.093 14.788 115.558 16.0935 117.119 18.6747L117.974 18.1573C116.207 15.2345 113.391 13.788 109.626 13.788V14.788ZM117.546 18.916H117.642V17.916H117.546V18.916ZM118.142 18.416V17.552H117.142V18.416H118.142ZM118.142 17.552C118.142 16.5021 118.413 15.9061 118.813 15.5947L118.199 14.8053C117.448 15.3899 117.142 16.3619 117.142 17.552H118.142ZM118.803 15.6025C119.341 15.2061 119.863 15.028 120.378 15.028V14.028C119.613 14.028 118.888 14.2979 118.21 14.7975L118.803 15.6025ZM120.378 15.028C120.706 15.028 121.016 15.0823 121.312 15.1899L121.653 14.2501C121.245 14.1017 120.819 14.028 120.378 14.028V15.028ZM121.324 15.1943C121.574 15.2775 121.865 15.4938 122.183 15.9277L122.99 15.3363C122.604 14.8102 122.159 14.4185 121.64 14.2457L121.324 15.1943ZM122.183 15.9277C122.454 16.2968 122.614 16.8222 122.614 17.552H123.614C123.614 16.6818 123.423 15.9272 122.99 15.3363L122.183 15.9277ZM122.614 17.552V35.936H123.614V17.552H122.614ZM122.614 35.936C122.614 40.1413 121.548 43.3331 119.482 45.5817L120.219 46.2583C122.504 43.7709 123.614 40.3067 123.614 35.936H122.614ZM119.477 45.5869C117.458 47.847 114.368 49.02 110.106 49.02V50.02C114.548 50.02 117.954 48.793 120.223 46.2531L119.477 45.5869ZM110.106 49.02C106.485 49.02 103.424 48.0851 100.898 46.2365L100.307 47.0435C103.029 49.0349 106.304 50.02 110.106 50.02V49.02ZM103.702 26.336C103.702 28.3979 104.331 30.2214 105.589 31.7854L106.368 31.1586C105.258 29.7786 104.702 28.1781 104.702 26.336H103.702ZM105.596 31.7946C106.913 33.3537 108.656 34.132 110.778 34.132V33.132C108.933 33.132 107.476 32.4703 106.36 31.1494L105.596 31.7946ZM110.778 34.132C112.955 34.132 114.745 33.3769 116.097 31.8517L115.348 31.1883C114.204 32.4791 112.698 33.132 110.778 33.132V34.132ZM116.096 31.8522C117.461 30.3161 118.142 28.4682 118.142 26.336H117.142C117.142 28.2358 116.543 29.8439 115.349 31.1878L116.096 31.8522ZM118.142 26.336C118.142 24.1775 117.481 22.3282 116.145 20.8203L115.396 21.4837C116.556 22.7918 117.142 24.3985 117.142 26.336H118.142ZM116.148 20.8245C114.797 19.266 113.007 18.492 110.826 18.492V19.492C112.742 19.492 114.247 20.158 115.393 21.4795L116.148 20.8245ZM110.826 18.492C108.679 18.492 106.92 19.2492 105.6 20.7772L106.357 21.4308C107.469 20.1428 108.942 19.492 110.826 19.492V18.492ZM105.599 20.7779C104.325 22.2591 103.702 24.125 103.702 26.336H104.702C104.702 24.323 105.264 22.7009 106.357 21.4301L105.599 20.7779Z" fill="black"/>
</g>
<defs>
<filter id="filter0_d" x="0.323975" y="0.779968" width="127.29" height="57.24" filterUnits="userSpaceOnUse" color-interpolation-filters="sRGB">
<feFlood flood-opacity="0" result="BackgroundImageFix"/>
<feColorMatrix in="SourceAlpha" type="matrix" values="0 0 0 0 0 0 0 0 0 0 0 0 0 0 0 0 0 0 127 0"/>
<feOffset dy="4"/>
<feGaussianBlur stdDeviation="2"/>
<feColorMatrix type="matrix" values="0 0 0 0 0 0 0 0 0 0 0 0 0 0 0 0 0 0 0.25 0"/>
<feBlend mode="normal" in2="BackgroundImageFix" result="effect1_dropShadow"/>
<feBlend mode="normal" in="SourceGraphic" in2="effect1_dropShadow" result="shape"/>
</filter>
</defs>
</svg>
